PathFileType        4      (X/Y/Z)      C:\Users\pc\Desktop\IMUTRC\Sujet_08\Sujet_08_velo_100.trc         
DataRate	CameraRate	NumFrames	NumMarkers	Units	OrigDataRate	OrigDataStartFrame	OrigNumFrames
60.0	60.0	4	64	mm	60.0	117	932
Frame#	Time	pHipOrigin			pRightASI			pLeftASI			pRightCSI			pLeftCSI			pRightIschialTub			pLeftIschialTub			pSacrum			pL5SpinalProcess			pL3SpinalProcess			pT12SpinalProcess			pIJ			pT4SpinalProcess			pT8SpinalProcess			pPX			pC7SpinalProcess			pTopOfHead			pRightAuricularis			pLeftAuricularis			pBackOfHead			pRightAcromion			pLeftAcromion			pRightArmLatEpicondyle			pRightArmMedEpicondyle			pLeftArmLatEpicondyle			pLeftArmMedEpicondyle			pRightUlnarStyloid			pRightRadialStyloid			pRightOlecranon			pLeftUlnarStyloid			pLeftRadialStyloid			pLeftOlecranon			pRightTopOfHand			pRightPinky			pRightBallHand			pLeftTopOfHand			pLeftPinky			pLeftBallHand			pRightGreaterTrochanter			pRightKneeLatEpicondyle			pRightKneeMedEpicondyle			pRightPatella			pLeftGreaterTrochanter			pLeftKneeLatEpicondyle			pLeftKneeMedEpicondyle			pLeftPatella			pRightTibialTub			pRightLatMalleolus			pRightMedMalleolus			pLeftTibialTub			pLeftLatMalleolus			pLeftMedMalleolus			pRightHeelFoot			pRightFirstMetatarsal			pRightFifthMetatarsal			pRightPivotFoot			pRightHeelCenter			pRightToe			pLeftHeelFoot			pLeftFirstMetatarsal			pLeftFifthMetatarsal			pLeftPivotFoot			pLeftHeelCenter			pLeftToe			
		X1	Y1	Z1	X2	Y2	Z2	X3	Y3	Z3	X4	Y4	Z4	X5	Y5	Z5	X6	Y6	Z6	X7	Y7	Z7	X8	Y8	Z8	X9	Y9	Z9	X10	Y10	Z10	X11	Y11	Z11	X12	Y12	Z12	X13	Y13	Z13	X14	Y14	Z14	X15	Y15	Z15	X16	Y16	Z16	X17	Y17	Z17	X18	Y18	Z18	X19	Y19	Z19	X20	Y20	Z20	X21	Y21	Z21	X22	Y22	Z22	X23	Y23	Z23	X24	Y24	Z24	X25	Y25	Z25	X26	Y26	Z26	X27	Y27	Z27	X28	Y28	Z28	X29	Y29	Z29	X30	Y30	Z30	X31	Y31	Z31	X32	Y32	Z32	X33	Y33	Z33	X34	Y34	Z34	X35	Y35	Z35	X36	Y36	Z36	X37	Y37	Z37	X38	Y38	Z38	X39	Y39	Z39	X40	Y40	Z40	X41	Y41	Z41	X42	Y42	Z42	X43	Y43	Z43	X44	Y44	Z44	X45	Y45	Z45	X46	Y46	Z46	X47	Y47	Z47	X48	Y48	Z48	X49	Y49	Z49	X50	Y50	Z50	X51	Y51	Z51	X52	Y52	Z52	X53	Y53	Z53	X54	Y54	Z54	X55	Y55	Z55	X56	Y56	Z56	X57	Y57	Z57	X58	Y58	Z58	X59	Y59	Z59	X60	Y60	Z60	X61	Y61	Z61	X62	Y62	Z62	X63	Y63	Z63	X64	Y64	Z64	
117	1.933	0.0	1249.97582	7.653894434872941E-14	98.02779569558447	1313.96114	132.03373953891622	87.33748035826642	1328.50326	-131.735724566559	76.69835684403097	1390.71121	113.71437289981162	67.79447895897476	1402.82964	-103.41783643447397	-66.96875010944935	1211.52	55.17575066710227	-71.42068905197743	1217.66	-53.3903540000405	-55.232041465553905	1290.20901	4.488105251766499	10.549504835774044	1371.16014	6.531893862960509	80.04156832030664	1462.77548	6.416009436946536	143.59941164074547	1546.7966	5.32833649223971	391.2607732163979	1582.344	-13.816042809516818	282.129752772956	1675.89829	-1.4010683104067536	214.69350070365823	1623.06193	2.549110759931011	302.2430350644296	1506.24025	-8.780563591250562	327.2973331723836	1709.8299	-2.944228071365595	573.4352498366003	1762.18153	-48.67811101886213	502.81402142154263	1720.97886	34.228122378478666	470.79541753825447	1733.74361	-95.7817520488339	469.03323311157334	1776.23891	-21.537770259759842	346.1682099747999	1645.19827	148.5160649112621	310.87651475468624	1656.5088	-163.1059389510472	457.1813601913604	1384.40962	148.43764579463786	432.3780253923155	1373.26066	93.03322811499532	400.8863604763077	1390.22647	-210.548860503185	401.7549604229767	1381.01646	-149.49503300844108	557.5227345286783	1154.15942	135.1860023316012	600.3458332330781	1177.26523	117.33258290237892	422.8125469572186	1370.35224	131.83251613042933	523.9797492737462	1166.43943	-191.8427850502028	567.8284006086363	1193.58472	-188.79763564603135	377.66559981637886	1374.87645	-183.6295571317769	731.9832635157381	1080.47936	215.34484554731299	643.9561611202895	1081.93357	184.5103411676055	601.1437532083525	1126.5294	138.25105991447424	670.828570415747	1078.05567	-302.7504197651402	596.3477792570889	1085.81147	-246.91745776436886	566.3773430758689	1139.45572	-200.139695341197	22.898546189614322	1221.21474	159.48029238761077	296.52624810704395	934.57344	139.555125280689	301.2762020219291	936.18923	62.75595389398087	328.1441153108863	967.21242	101.12029688251097	26.596938708839325	1231.71738	-156.12635587487725	353.3486548868804	1014.87825	-95.8285950622145	351.10271679769016	1021.82615	-19.24849667354419	373.76304632975416	1055.75776	-57.81716094722585	320.7273633707201	885.61498	104.1776700803462	41.5920365415579	628.05791	143.737947242627	44.34144191021186	622.88738	83.39979491972755	399.67243691145086	987.24822	-54.0053648214621	310.6369011998686	620.14054	-110.78628604335638	306.37798212071607	616.74738	-50.66014062321462	-43.615181503464946	610.76895	111.05107869326402	45.00464430996574	488.13042	64.76197064860189	44.04914693323629	481.3441	139.05006011433497	56.53409410979681	467.4483	99.53658159594212	-20.188412667307745	582.00787	108.77212050381567	101.48688516999802	401.84719	94.22744722102811	251.598838364124	551.95416	-88.18823071538453	394.3483293178311	510.58992	-33.58348232272911	403.7022169177366	510.91307	-107.57413320142342	419.1839640674376	504.93465	-66.95203154185361	287.7874729232973	544.52152	-83.55539780602882	495.139400394939	482.63673	-57.42596105703788	
118	1.95	0.0	1249.97582	7.653894434872941E-14	96.2863528153061	1314.44588	133.10361492400918	89.13438709717143	1328.01852	-130.86072391411483	75.02094390743373	1391.19594	114.20519265760075	69.20013104750015	1402.3449	-103.08205207059709	-67.73132305486591	1211.84316	54.32494828004715	-70.69366412604148	1217.33684	-54.25678856743023	-55.31169716169354	1290.20901	3.5775553472733366	10.301949913535715	1371.16014	6.324170619014206	79.85376091550634	1462.93706	6.891203442277178	143.34758072014014	1546.95818	6.3825784644297086	391.0245680482511	1582.66716	-11.272195305529879	281.74986196498844	1676.22145	0.8112849163908495	214.3776398393718	1623.22351	4.182408359424812	302.0509516612623	1506.56341	-7.043404369783609	326.93735820356204	1710.15306	-0.5042357614756928	573.0112372636531	1762.98942	-45.659069509544516	502.4938768984447	1721.30202	37.12337876623268	470.35148912616137	1734.5515	-92.99034962260863	468.6092269665023	1776.72364	-18.51873641088665	344.7739012124898	1645.35985	150.93185895576295	311.1795271076751	1657.15512	-160.95333200911926	456.26652786062414	1384.73278	149.77927436735825	432.12619447171016	1373.90698	94.08747008718535	401.04568595690745	1390.87278	-208.72776192676696	401.43909955869026	1381.33962	-147.86173540894725	557.4188729067051	1154.80574	135.30977979272035	600.1381099891319	1178.07313	117.58013782461727	422.2292089036718	1370.6754	133.03045906332886	523.5643027858534	1166.60101	-191.34767520572615	567.4129605486198	1193.90788	-188.30253346199916	377.5773780351848	1375.36119	-182.01617537142909	732.0672092985652	1081.28725	214.9934290031015	643.9561611202895	1082.57989	184.5103411676055	601.1437532083525	1127.17571	138.25105991447424	670.2694370554652	1078.70199	-302.58681828617335	595.788639468931	1086.13463	-246.7538486249577	566.0657582099493	1139.6173	-199.76836295783943	23.373740194944972	1223.47685	159.66809979241108	315.78294559544497	955.90188	140.73763702287698	320.0776213441455	957.03293	63.9782973144609	344.83705711659866	990.15665	101.83897080133589	24.300646127090687	1227.67791	-156.15483779907777	333.764732691781	986.11717	-98.12937872027358	333.8150871843394	994.68086	-21.52079840740276	358.19694375753573	1026.0272	-61.386977149269676	337.64365417283733	906.45868	106.13839460872975	50.24505544269686	658.2732	148.2566450376816	52.890599189377696	652.45635	88.04227017590135	383.067724547377	960.26452	-56.337414072758776	304.44229045799113	590.08683	-108.17990858546266	300.30713475163725	587.50156	-47.94990031077946	-35.54121822962976	643.24635	115.50574654463752	49.9158816672309	518.34571	68.46114573815943	48.608974174166065	511.23623	142.66528176062096	60.742504806515115	497.17885	103.06785745940095	-12.817268393574992	613.67737	113.05889555696656	103.93822080610337	430.44669	97.33900059822737	245.21642021744623	522.22361	-85.10665925216021	388.34151189243335	480.69778	-31.452297637597724	397.11635152547956	480.69778	-105.50697203209708	412.80582191912686	474.88094	-65.13242529476557	281.3851389374735	514.79097	-80.7014654258968	488.72142656833626	452.58302	-56.06163297613452	
119	1.967	0.0	1249.97582	7.653894434872941E-14	94.12946344713512	1314.44588	134.66860015357875	91.32253439813549	1327.69536	-129.44650574053492	73.27950102715536	1391.35752	115.27506804269368	71.12081524752432	1402.18332	-102.1031897961797	-68.61768112184608	1212.00473	53.37027784314278	-69.75891595615921	1217.33684	-55.370778057058274	-55.39136694615369	1290.37059	2.667006675348504	10.42572737465488	1371.16014	6.428032240987357	80.03728589406354	1462.77548	7.677982313527264	143.48698393371782	1546.7966	7.976045618199815	391.49119596852734	1582.344	-8.560456235888596	281.96893496302624	1675.89829	3.3153007420857707	214.68065862023678	1623.06193	6.335007640908302	302.2501088201541	1506.40183	-4.767027627180987	327.30012450186507	1709.99148	2.3312807692847084	573.2900501186846	1762.82784	-42.47214286244873	502.8765590358937	1720.81728	40.18653438008544	470.75408710275633	1734.5515	-89.6995549256636	469.01182494309734	1776.56207	-15.227941713941652	344.2261176062996	1644.55195	153.847031182663	312.32906461678374	1657.15512	-158.30134688479217	456.158390240284	1384.24804	151.1650170446137	432.22576600699585	1373.90698	95.22565907477082	401.8238987431031	1390.71121	-206.38735524048326	401.8858116398204	1381.01646	-145.37763542239836	557.3548429630241	1154.48258	135.88883542002412	600.0740723850063	1177.74997	118.15918702404504	422.2249329053048	1370.35224	134.2924242794652	523.188694404129	1166.11627	-190.39729485550927	567.2649848221116	1193.09998	-187.37206129048386	378.25172919940724	1375.36119	-179.5519912240262	732.0871251377113	1080.80252	215.2210680861938	643.9760769594355	1082.25673	184.7379802506979	601.0797232646712	1126.85256	138.83011554177799	669.6064356453343	1078.05567	-302.29943168564296	595.2693313590653	1085.48831	-246.13496131936188	565.670233989079	1138.97099	-199.04562169071488	22.81460040678718	1224.93106	159.83170893182225	333.1545209916229	978.03822	142.6585222125241	337.80061328453485	979.81559	65.98312828693514	360.0560191429727	1014.39351	104.06287600441632	21.984431278319946	1224.44632	-156.41095114592616	311.5131931920198	958.8103	-100.77022274057656	313.8200085880349	968.34347	-24.588438669689847	339.9831397198016	996.94297	-65.0692146304651	353.29370252788294	929.07975	109.35679426656213	60.803126363525415	687.35744	152.26460723580107	63.696225032444566	680.7327	92.25795561796711	362.9488620620772	934.57344	-59.50890829657456	291.9862348453214	562.29522	-107.663591562133	288.30636373302826	560.1947	-47.4734226261862	-25.022971326648808	671.19953	119.05843700444846	61.15686217689196	546.78363	72.40935399096476	59.39468417808691	539.67415	146.6533281195944	71.98348654874451	525.77835	107.01607980052682	-2.1752504573509697	641.79214	116.71545529919509	115.42675623800274	458.88461	101.494932094979	232.0333461067167	495.40148	-83.72391532188524	374.8511430024719	452.09829	-30.960187772669855	383.2745596634305	451.61355	-105.09880028955195	399.1916691401701	445.7967	-64.74416939136648	268.28600418169503	487.48411	-79.67013037938887	474.8398030279951	422.36773	-56.10873939977398	
120	1.983	0.0	1249.97582	7.653894434872941E-14	91.74494908419237	1314.2843	136.25349998972604	93.88202174290149	1327.3722	-127.72069627315948	71.55798164646743	1391.03436	116.57258893875503	73.2890543697868	1402.02174	-100.91660427781602	-69.64772482864699	1212.16631	52.08411312904903	-68.94793881952003	1217.49842	-56.588636829103905	-55.26330705879143	1290.37059	1.5088954207409104	10.693198136039223	1371.16014	6.863394568025975	80.3844187794636	1462.6139	9.023886884614623	143.9977259585291	1546.47345	9.881089977444953	391.97773206750503	1581.69769	-5.621084511031159	282.7869717670694	1675.41356	6.110979166678067	215.35500978445918	1622.5772	8.799191788311205	302.92445998437654	1505.75552	-2.302843479778055	328.13807714505424	1709.34517	5.354598276969304	574.2916259896056	1762.18153	-38.88968679917469	503.8582049793481	1719.84781	43.54135259283546	471.7357330462108	1734.06677	-86.34473671291359	469.78574764260543	1775.75417	-11.625568578953226	344.15352157756405	1643.58248	156.95001847480773	314.0775812527866	1656.67038	-155.35768630581555	456.2778776147157	1383.27857	152.53084511529153	432.5729065528403	1373.42224	96.5715700737343	402.889498129829	1390.06489	-203.38394714406851	403.0552649880751	1380.37014	-142.4980112149789	557.3107276259207	1153.5131	136.69551604209977	600.0299647083473	1176.78049	118.96587407399672	422.44828190170955	1369.70592	135.5344748890238	522.83298777323	1164.82364	-189.2192741896318	567.1369237021811	1191.48419	-186.21396412419682	379.31732092568876	1374.87645	-176.5485895554876	732.0231016219062	1079.67146	215.80011605305324	643.8081853937812	1081.28725	185.44081333912078	601.0156856605457	1126.04466	139.40916474120579	668.7357174191332	1076.76304	-301.7644978233188	594.8738071381948	1084.19568	-245.41222005223736	565.418388980153	1137.51678	-197.9913784859566	21.448773568677723	1225.90054	159.95121039457442	348.537092157408	1001.46718	145.44156720376225	354.2175182438084	1004.21403	68.7903715435624	373.4296907554156	1039.92301	107.48043282114045	19.792000318544453	1222.18422	-156.56321053124583	286.905613593072	933.44239	-104.122465934357	291.50872157083575	943.29871	-27.912199939269783	319.10170305651695	969.31295	-69.09152532965658	368.300672972388	953.47819	113.09022603589327	73.28616514318955	714.6643	155.98947292007773	76.6345343178489	707.23167	95.94298319607562	340.1623810395474	909.69026	-63.020476970954775	274.13519587332195	536.28099	-108.51032660088849	271.15815142157567	534.34204	-48.15225843884304	-11.812915281493147	695.92113	121.91686169345927	78.1485391046579	573.76734	76.54258597953338	75.9111671005222	566.65786	150.59875270336272	89.22271839874877	552.92364	111.35703503304174	11.861414904778485	667.16005	119.84561908751279	134.54683418186306	487.16095	106.35947909617109	212.99999118684445	470.84146	-83.66436879407014	355.0751309763291	424.46826	-31.523804548817598	362.7957209767409	423.17563	-105.83031629179837	378.9404695365728	417.35878	-65.49560123275893	248.90123914548735	461.95461	-79.69453729484535	454.0934935799212	392.15245	-57.27561772905907	
